<?xml version="1.0" encoding="utf-8"?>
<!-- Generator: Adobe Illustrator 21.1.0, SVG Export Plug-In . SVG Version: 6.00 Build 0)  -->
<svg version="1.1" id="Livello_1" xmlns="http://www.w3.org/2000/svg" xmlns:xlink="http://www.w3.org/1999/xlink" x="0px" y="0px"
	 viewBox="0 0 320 200" style="enable-background:new 0 0 320 200;" xml:space="preserve">
<style type="text/css">
	.st0{fill:#12AECA;}
	.st1{opacity:0.8;fill:#12AECA;}
	.st2{fill:#DEEFFA;}
	.st3{fill:#A9DDEE;}
	.st4{fill:#C4DBE8;}
	.st5{fill:#C6E2F2;}
	.st6{fill:#88C5E3;}
	.st7{opacity:0.6;fill:#A3D1EF;}
	.st8{opacity:0.6;}
	.st9{fill:#9ED3E4;}
	.st10{fill:#097BC0;}
	.st11{opacity:0.5;fill:none;stroke:#FFFFFF;stroke-width:0.5;stroke-miterlimit:10;}
	.st12{opacity:0.5;}
	.st13{fill:none;stroke:#FFFFFF;stroke-width:0.5;stroke-miterlimit:10;}
</style>
<g>
	<path class="st0" d="M53.3,134.4L53.3,134.4c-4.6-4.1-8.2-7.3-9.4-8.5c-4-3.6-9.6-0.5-9.6-0.5l-12.5,6.6l47.6,47.6l16.2-16.2
		l-16.2-14.6L53.3,134.4"/>
	<path class="st1" d="M53.3,134.4l0,4l-14.8-14.2c0,0-1.6-0.1-4.2,1.3s-12.5,6.6-12.5,6.6l47.6,47.6v-30.9v-34.3l-16.1,2.8v10.8
		V134.4z"/>
	<path class="st2" d="M69.2,76.5c0,0-39.5-40-43.5-44c-3.9-4-9.2-3.4-9.2-3.4c-6.5,2.5-6.1,10.7-6.1,10.7S11,88.3,11,105.1
		s7.8,24,7.8,24l50.6,50.6L69.2,76.5z M53.3,138.5L26.8,113V58.8l15.1,14.3l11.5,10.6V138.5z"/>
	<polygon class="st3" points="69.2,76.5 85.7,60 85.7,163.5 69.4,179.8 	"/>
	<path class="st4" d="M85.7,60L45.9,22.7c0,0-5.6-4.6-11.7-1.7s-17.7,8.1-17.7,8.1s5.1-0.7,9.2,3.4s43.5,44,43.5,44L85.7,60z"/>
	<polygon class="st5" points="26.8,113 41.8,103.3 41.8,73.1 26.8,58.8 	"/>
	<path class="st6" d="M25.5,29c0,0,39.9,20.2,54.9,36.2c-6.1,6.1-11.3,11.3-11.3,11.3L23.9,31L25.5,29z"/>
	<path class="st7" d="M26.8,113V58.8l15.1,14.3l11.5,10.6v33.6c7.8-0.9,15.5-2.2,21.9-4.3c-9.8-30.7-49.7-84-49.7-84L10.4,46.9
		l0.6,58.2c0,0,0,8.4,1.9,13.3c0,0,8.4,0.5,19.7,0.2L26.8,113z"/>
	<g class="st8">
		<path class="st9" d="M32.4,118.4c-11.1,0.3-19.5,0-19.5,0s1.1,5.9,8.9,13.8c7.8,7.8,7.8,7.8,7.8,7.8s7.6-3.4,16.7-8.2L32.4,118.4z
			"/>
		<path class="st9" d="M53.3,117.1v11c9.1-5,18.1-10.6,21.9-15.1C69,115,61.3,116.3,53.3,117.1z"/>
	</g>
	<polygon class="st10" points="26.8,113 41.8,103.3 53.3,114.8 53.3,138.5 	"/>
	<path class="st11" d="M53.3,117.3c7.8-0.9,15.5-2.2,21.9-4.3c-9.8-30.7-49.7-84-49.7-84L10.4,46.9l0.6,58.2c0,0,0,8.4,1.9,13.3
		c0,0,8.4,0.5,19.7,0.2"/>
	<g class="st12">
		<path class="st13" d="M12.9,118.4c0,0,1.1,5.9,8.9,13.8c7.8,7.8,7.8,7.8,7.8,7.8s7.6-3.4,16.7-8.2"/>
		<path class="st13" d="M53.3,128.1c9.1-5,18.1-10.6,21.9-15.1"/>
	</g>
</g>
<g>
	<path class="st0" d="M126.3,134.4L126.3,134.4c4.6-4.1,8.2-7.3,9.4-8.5c4-3.6,9.6-0.5,9.6-0.5l12.5,6.6l-47.6,47.6l-16.2-16.2
		l16.2-14.6L126.3,134.4"/>
	<path class="st1" d="M126.3,134.4v4l14.8-14.2c0,0,1.6-0.1,4.2,1.3s12.5,6.6,12.5,6.6l-47.6,47.6v-30.9v-34.3l16.1,2.8v10.8V134.4z
		"/>
	<path class="st2" d="M110.2,179.8l50.6-50.6c0,0,7.8-7.2,7.8-24s0.6-65.3,0.6-65.3s0.5-8.3-6.1-10.7c0,0-5.3-0.6-9.2,3.4
		c-3.9,4-43.5,44-43.5,44L110.2,179.8z M126.3,83.7l11.5-10.6l15.1-14.3V113l-26.6,25.5V83.7z"/>
	<polygon class="st3" points="110.4,76.5 93.9,60 93.9,163.5 110.2,179.8 	"/>
	<path class="st4" d="M93.9,60l39.8-37.3c0,0,5.6-4.6,11.7-1.7s17.7,8.1,17.7,8.1s-5.1-0.7-9.2,3.4c-4.1,4.1-43.5,44-43.5,44
		L93.9,60z"/>
	<polygon class="st5" points="152.8,113 137.8,103.3 137.8,73.1 152.8,58.8 	"/>
	<path class="st6" d="M154.1,29c0,0-39.9,20.2-54.9,36.2c6.1,6.1,11.3,11.3,11.3,11.3L155.7,31L154.1,29z"/>
	<path class="st7" d="M152.8,113V58.8l-15.1,14.3l-11.5,10.6v33.6c-7.8-0.9-15.5-2.2-21.9-4.3c9.8-30.7,49.7-84,49.7-84l15.1,17.9
		l-0.6,58.2c0,0,0,8.4-1.9,13.3c0,0-8.4,0.5-19.7,0.2L152.8,113z"/>
	<g class="st8">
		<path class="st9" d="M147.2,118.4c11.1,0.3,19.5,0,19.5,0s-1.1,5.9-8.9,13.8C150,140,150,140,150,140s-7.6-3.4-16.7-8.2
			L147.2,118.4z"/>
		<path class="st9" d="M126.3,117.1v11c-9.1-5-18.1-10.6-21.9-15.1C110.6,115,118.4,116.3,126.3,117.1z"/>
	</g>
	<polygon class="st10" points="152.8,113 137.8,103.3 126.3,114.8 126.3,138.5 	"/>
	<path class="st11" d="M126.3,117.3c-7.8-0.9-15.5-2.2-21.9-4.3c9.8-30.7,49.7-84,49.7-84l15.1,17.9l-0.6,58.2c0,0,0,8.4-1.9,13.3
		c0,0-8.4,0.5-19.7,0.2"/>
	<g class="st12">
		<path class="st13" d="M166.7,118.4c0,0-1.1,5.9-8.9,13.8C150,140,150,140,150,140s-7.6-3.4-16.7-8.2"/>
		<path class="st13" d="M126.3,128.1c-9.1-5-18.1-10.6-21.9-15.1"/>
	</g>
</g>
<g>
	<path d="M200.5,55.1h6.2c3.1,0,5.4,0.8,7.1,2.5c1.7,1.7,2.5,4,2.5,7.1c0,3.1-0.8,5.5-2.5,7.1c-1.7,1.7-4,2.5-7.1,2.5h-6.2V55.1z
		 M206.6,72.9c2.6,0,4.6-0.7,5.9-2.1c1.3-1.4,2-3.4,2-6.1c0-5.4-2.6-8.1-7.9-8.1h-4.4v16.3H206.6z"/>
	<path d="M219.9,55.2h2.2v2.1h-2.2V55.2z M220.2,74.4V60.8h1.6v13.5H220.2z"/>
	<path d="M237.9,60.8v13.6c0,2-0.5,3.4-1.5,4.5c-1,1-2.4,1.5-4.3,1.5c-2,0-3.8-0.5-5.3-1.5l0.3-1.4c0.9,0.5,1.7,0.9,2.4,1.1
		c0.7,0.2,1.6,0.3,2.5,0.3c1.4,0,2.4-0.4,3.1-1.1c0.7-0.7,1-1.8,1-3.2v-3.5c-0.4,0.9-1,1.6-1.8,2.1c-0.8,0.5-1.8,0.7-2.9,0.7
		c-1.2,0-2.2-0.3-3.2-0.9s-1.6-1.4-2.1-2.4c-0.5-1-0.8-2.2-0.8-3.5c0-1.3,0.3-2.5,0.8-3.5c0.5-1,1.2-1.8,2.1-2.4
		c0.9-0.6,2-0.8,3.2-0.8c1.1,0,2.1,0.2,2.9,0.7c0.8,0.5,1.4,1.2,1.8,2.1v-2.4H237.9z M235.1,71.1c0.8-0.9,1.2-2.2,1.2-3.8
		c0-1.6-0.4-2.9-1.2-3.9c-0.8-0.9-1.9-1.4-3.3-1.4c-1.4,0-2.5,0.5-3.3,1.4c-0.8,0.9-1.2,2.2-1.2,3.9c0,1.6,0.4,2.9,1.2,3.8
		c0.8,0.9,1.9,1.4,3.3,1.4C233.2,72.5,234.3,72,235.1,71.1z"/>
	<path d="M242.2,55.2h2.2v2.1h-2.2V55.2z M242.4,74.4V60.8h1.6v13.5H242.4z"/>
	<path d="M250.9,62.2v8c0,1.1,0.2,1.8,0.6,2.2c0.4,0.4,1,0.6,1.8,0.6c0.5,0,1-0.1,1.5-0.2v1.5c-0.6,0.1-1.2,0.2-1.8,0.2
		c-1.2,0-2.1-0.3-2.8-1s-1-1.7-1-3v-8.4h-2.7v-1.3h2.7v-3.6l1.6-0.6v4.2h4v1.3H250.9z"/>
	<path d="M269.1,60.8v13.5h-1.6v-2.6c-0.4,0.9-1,1.6-1.8,2.1c-0.8,0.5-1.8,0.7-2.9,0.7c-1.2,0-2.3-0.3-3.2-0.9
		c-0.9-0.6-1.6-1.4-2.1-2.4c-0.5-1.1-0.7-2.3-0.7-3.7c0-1.4,0.3-2.6,0.8-3.7c0.5-1.1,1.2-1.9,2.1-2.5c0.9-0.6,2-0.9,3.1-0.9
		c1.1,0,2,0.2,2.8,0.7c0.8,0.5,1.4,1.2,1.8,2.1v-2.4H269.1z M266.3,71.6c0.8-1,1.2-2.3,1.2-4.1c0-1.8-0.4-3.2-1.2-4.1
		c-0.8-1-1.9-1.5-3.3-1.5s-2.5,0.5-3.3,1.5c-0.8,1-1.2,2.4-1.2,4.1c0,1.7,0.4,3.1,1.2,4.1c0.8,1,1.9,1.4,3.3,1.4
		C264.5,73.1,265.6,72.6,266.3,71.6z"/>
	<path d="M273.6,74.4V54.5h1.6v19.9H273.6z"/>
	<path d="M200.5,87.5h6.2c3.1,0,5.4,0.8,7.1,2.5c1.7,1.7,2.5,4,2.5,7.1c0,3.1-0.8,5.5-2.5,7.1c-1.7,1.7-4,2.5-7.1,2.5h-6.2V87.5z
		 M206.6,105.3c2.6,0,4.6-0.7,5.9-2.1c1.3-1.4,2-3.4,2-6.1c0-5.4-2.6-8.1-7.9-8.1h-4.4v16.3H206.6z"/>
	<path d="M221,99.8L221,99.8c0,1.9,0.4,3.3,1.3,4.3s2.1,1.4,3.7,1.4c1.6,0,3.1-0.6,4.5-1.7l0.6,1.3c-0.6,0.6-1.3,1-2.3,1.3
		s-1.9,0.5-2.8,0.5c-2.1,0-3.7-0.6-4.9-1.9c-1.2-1.2-1.8-3-1.8-5.1c0-1.4,0.3-2.6,0.8-3.7c0.5-1.1,1.3-1.9,2.2-2.5
		c1-0.6,2.1-0.9,3.3-0.9c1.8,0,3.2,0.6,4.2,1.7c1,1.2,1.5,2.8,1.5,4.8v0.4H221z M222.6,95.4c-0.8,0.7-1.3,1.8-1.5,3.1h8.6
		c-0.1-1.4-0.5-2.4-1.2-3.2s-1.7-1.1-2.9-1.1C224.4,94.3,223.4,94.6,222.6,95.4z"/>
	<path d="M246,98.1v8.6h-1.6v-8.5c0-1.4-0.3-2.3-0.8-3c-0.5-0.6-1.4-0.9-2.6-0.9c-1.4,0-2.4,0.4-3.3,1.2c-0.8,0.8-1.2,1.9-1.2,3.3
		v7.8h-1.6V97c0-1.4-0.1-2.7-0.2-3.8h1.6l0.2,2.5c0.4-0.9,1-1.6,1.9-2.1c0.8-0.5,1.8-0.7,2.9-0.7C244.4,92.9,246,94.7,246,98.1z"/>
	<path d="M252.7,94.6v8c0,1.1,0.2,1.8,0.6,2.2s1,0.6,1.8,0.6c0.5,0,1-0.1,1.5-0.2v1.5c-0.6,0.1-1.2,0.2-1.8,0.2
		c-1.2,0-2.1-0.3-2.8-1c-0.7-0.7-1-1.7-1-3v-8.4h-2.7v-1.3h2.7v-3.6l1.6-0.6v4.2h4v1.3H252.7z"/>
	<path d="M259.3,87.6h2.2v2.1h-2.2V87.6z M259.5,106.8V93.2h1.6v13.5H259.5z"/>
	<path d="M264.9,105.1l0.6-1.3c0.7,0.6,1.4,1,2.2,1.3c0.7,0.3,1.6,0.4,2.5,0.4c1.1,0,2-0.2,2.6-0.6s0.9-0.9,0.9-1.7
		c0-0.6-0.2-1.1-0.6-1.4c-0.4-0.4-1-0.6-1.9-0.9l-2.3-0.5c-1.1-0.3-1.9-0.7-2.6-1.4s-0.9-1.4-0.9-2.3c0-1.2,0.5-2.1,1.4-2.8
		c0.9-0.7,2.1-1.1,3.6-1.1c1,0,1.8,0.2,2.7,0.5c0.8,0.3,1.5,0.7,2,1.3l-0.6,1.3c-1.2-1.1-2.6-1.6-4.1-1.6c-1,0-1.9,0.2-2.4,0.6
		c-0.6,0.4-0.9,1-0.9,1.7c0,0.6,0.2,1.1,0.6,1.5c0.4,0.4,0.9,0.7,1.7,0.8l2.3,0.6c2.4,0.5,3.6,1.7,3.6,3.6c0,1.1-0.5,2-1.4,2.7
		c-0.9,0.7-2.2,1-3.8,1C267.9,106.9,266.2,106.3,264.9,105.1z"/>
	<path d="M281.2,94.6v8c0,1.1,0.2,1.8,0.6,2.2c0.4,0.4,1,0.6,1.8,0.6c0.5,0,1-0.1,1.5-0.2v1.5c-0.6,0.1-1.2,0.2-1.8,0.2
		c-1.2,0-2.1-0.3-2.8-1s-1-1.7-1-3v-8.4h-2.7v-1.3h2.7v-3.6l1.6-0.6v4.2h4v1.3H281.2z"/>
	<path d="M295,93l-0.1,1.5c-0.3-0.1-0.8-0.1-1.2-0.1c-1.4,0-2.4,0.4-3.1,1.3c-0.7,0.9-1,1.9-1,3.1v7.9H288V97c0-1.4-0.1-2.7-0.2-3.8
		h1.6l0.2,2.5c0.3-0.9,0.9-1.6,1.7-2.1c0.8-0.5,1.6-0.7,2.6-0.7C294.3,92.9,294.7,92.9,295,93z"/>
	<path d="M309.7,93.2l-6.4,14.9c-0.6,1.5-1.4,2.6-2.4,3.3c-0.9,0.7-2.1,1.2-3.5,1.5l-0.3-1.3c1.3-0.3,2.3-0.7,2.9-1.2
		c0.7-0.5,1.2-1.3,1.7-2.3l0.6-1.3l-5.8-13.6h1.8l4.9,11.9l4.9-11.9H309.7z"/>
	<path d="M202.4,138.8c-1.2-0.4-2.2-1-3.1-1.9l0.7-1.3c1,0.8,1.9,1.4,2.9,1.8c1,0.4,2.1,0.5,3.5,0.5c1.6,0,2.9-0.3,3.8-1
		c0.9-0.7,1.3-1.6,1.3-2.8c0-0.7-0.2-1.3-0.7-1.7c-0.4-0.4-1-0.8-1.7-1c-0.7-0.3-1.6-0.5-2.7-0.8c-1.5-0.3-2.7-0.7-3.6-1
		c-0.9-0.4-1.7-0.9-2.3-1.6c-0.6-0.7-0.9-1.6-0.9-2.8c0-1.1,0.3-2,0.8-2.9c0.6-0.8,1.4-1.5,2.4-1.9c1-0.4,2.2-0.7,3.6-0.7
		c1.3,0,2.5,0.2,3.6,0.6c1.1,0.4,2.1,1,2.9,1.9l-0.7,1.3c-0.9-0.8-1.8-1.4-2.8-1.8c-0.9-0.4-2-0.6-3.1-0.6c-1.6,0-2.9,0.4-3.8,1.1
		c-0.9,0.7-1.4,1.7-1.4,2.9c0,1.1,0.4,1.9,1.2,2.4c0.8,0.5,2,1,3.5,1.3l0.8,0.2c1.4,0.3,2.6,0.7,3.4,1c0.8,0.3,1.6,0.8,2.2,1.5
		c0.6,0.6,0.9,1.5,0.9,2.6c0,1-0.3,2-0.8,2.8c-0.6,0.8-1.4,1.4-2.4,1.9c-1,0.4-2.2,0.7-3.6,0.7C204.9,139.4,203.6,139.2,202.4,138.8
		z"/>
	<path d="M218.9,138.5c-0.9-0.6-1.7-1.4-2.2-2.5c-0.5-1.1-0.8-2.3-0.8-3.7s0.3-2.6,0.8-3.7c0.5-1.1,1.2-1.9,2.2-2.5
		c0.9-0.6,2-0.9,3.3-0.9c1.2,0,2.3,0.3,3.2,0.9c0.9,0.6,1.7,1.4,2.2,2.5c0.5,1.1,0.8,2.3,0.8,3.7s-0.3,2.6-0.8,3.7
		c-0.5,1.1-1.2,1.9-2.2,2.5c-0.9,0.6-2,0.9-3.2,0.9C220.9,139.3,219.8,139.1,218.9,138.5z M225.5,136.4c0.8-1,1.2-2.3,1.2-4.1
		c0-1.8-0.4-3.1-1.2-4.1c-0.8-1-1.9-1.5-3.3-1.5c-1.4,0-2.5,0.5-3.3,1.5c-0.8,1-1.2,2.4-1.2,4.1c0,1.8,0.4,3.2,1.2,4.1
		c0.8,1,1.9,1.4,3.3,1.4S224.7,137.4,225.5,136.4z"/>
	<path d="M234.1,138.5c-1-0.6-1.7-1.4-2.2-2.4c-0.5-1.1-0.8-2.3-0.8-3.7c0-1.4,0.3-2.6,0.8-3.7c0.5-1.1,1.3-1.9,2.2-2.5
		s2.1-0.9,3.4-0.9c0.9,0,1.8,0.2,2.6,0.5c0.8,0.3,1.5,0.8,2.1,1.3l-0.6,1.3c-0.7-0.6-1.4-1-2-1.3s-1.3-0.4-2-0.4
		c-1.5,0-2.6,0.5-3.5,1.5s-1.3,2.4-1.3,4.1c0,1.7,0.4,3.1,1.3,4c0.8,1,2,1.5,3.5,1.5c0.7,0,1.3-0.1,2-0.4c0.6-0.3,1.3-0.7,2-1.2
		l0.6,1.3c-0.6,0.6-1.3,1-2.1,1.3c-0.9,0.3-1.7,0.5-2.6,0.5C236.2,139.3,235,139.1,234.1,138.5z"/>
	<path d="M244.9,120h2.2v2.1h-2.2V120z M245.2,139.2v-13.5h1.6v13.5H245.2z"/>
	<path d="M252.2,132.2L252.2,132.2c0,1.9,0.4,3.3,1.3,4.3s2.1,1.4,3.7,1.4c1.6,0,3.1-0.6,4.5-1.7l0.6,1.3c-0.6,0.6-1.3,1-2.3,1.3
		s-1.9,0.5-2.8,0.5c-2.1,0-3.7-0.6-4.9-1.9c-1.2-1.2-1.8-3-1.8-5.1c0-1.4,0.3-2.6,0.8-3.7c0.5-1.1,1.3-1.9,2.2-2.5s2.1-0.9,3.3-0.9
		c1.8,0,3.2,0.6,4.2,1.7s1.5,2.8,1.5,4.8v0.4H252.2z M253.8,127.8c-0.8,0.7-1.3,1.8-1.5,3.1h8.6c-0.1-1.4-0.5-2.4-1.2-3.2
		c-0.7-0.7-1.7-1.1-2.9-1.1C255.6,126.7,254.5,127,253.8,127.8z"/>
	<path d="M268.3,127v8c0,1.1,0.2,1.8,0.6,2.2c0.4,0.4,1,0.6,1.8,0.6c0.5,0,1-0.1,1.5-0.2v1.5c-0.6,0.1-1.2,0.2-1.8,0.2
		c-1.2,0-2.1-0.3-2.8-1s-1-1.7-1-3V127H264v-1.3h2.7V122l1.6-0.6v4.2h4v1.3H268.3z"/>
	<path d="M286.7,125.6l-6.4,14.9c-0.6,1.5-1.4,2.6-2.4,3.3c-0.9,0.7-2.1,1.2-3.6,1.5l-0.3-1.3c1.3-0.3,2.3-0.7,2.9-1.2
		c0.7-0.5,1.2-1.3,1.7-2.3l0.6-1.3l-5.8-13.6h1.8l4.9,11.9l4.9-11.9H286.7z"/>
</g>
</svg>
